<svg xmlns="http://www.w3.org/2000/svg" width="99" height="99" viewBox="0 0 99 99">
  <g id="logo" transform="translate(-0.461)">
    <rect id="Rectangle_3" data-name="Rectangle 3" width="99" height="99" transform="translate(0.461)" fill="#191919"/>
    <path id="Path_15" data-name="Path 15" d="M38.714,203.642v-3.469a2.066,2.066,0,0,0-.863-1.892c-1.246-.718-2.76-.095-3.832.576l-.035-.97H33.4a3.809,3.809,0,0,1-1.971.789v.394c.2.032.745.154.789.564v3.994c0,.457-.6.651-1.045.682v.446a31.253,31.253,0,0,1,3.943,0v-.446c-.438-.024-1.041-.315-1.041-.686v-3.765a1.825,1.825,0,0,1,2.062-.789,1.249,1.249,0,0,1,.721,1.116v3.485c0,.457-.6.651-1.045.682v.446a31.27,31.27,0,0,1,3.943,0v-.446c-.438-.024-1.041-.315-1.041-.686m4.534.292c-.516,0-.619-.678-.619-.678V198.71h1.5v-.6h-1.51V196.4h-.5a4.506,4.506,0,0,1-.919,1.1,8.675,8.675,0,0,1-1.238.789v.418h.958v4.569a1.5,1.5,0,0,0,1.715,1.577,1.766,1.766,0,0,0,1.676-.915l-.418-.3a.718.718,0,0,1-.639.272M49,203.6c-1.577-.134-1.908-1.045-1.908-1.045l4.073-3.3-.189-.335a1.336,1.336,0,0,1-.5-.24,3.548,3.548,0,0,0-3.083-.69,3.477,3.477,0,0,0,1.076,6.84,3.667,3.667,0,0,0,2.709-1.392l-.315-.394a2.326,2.326,0,0,1-1.853.568m-2.243-3.682c.158-.789.343-1.23,1.045-1.455a1.128,1.128,0,0,1,1.317.493c.15.24.449.789.268.942l-2.547,2.023a6.04,6.04,0,0,1-.087-2.007m8.958-1.908a2.121,2.121,0,0,0-1.246,1.388l-.032-1.518h-.516a3.8,3.8,0,0,1-1.971.789v.394c.2.032.745.154.789.564v3.994c0,.457-.6.651-1.045.682v.446a30.218,30.218,0,0,1,3.887,0v-.446c-.438-.024-1.041-.315-1.041-.686V200.5a1.542,1.542,0,0,1,.473-1.041c.233-.225.623.047.863.193a.93.93,0,0,0,1.1-.335.832.832,0,0,0-.095-1.005,1.12,1.12,0,0,0-1.151-.288m22.7,0a2.121,2.121,0,0,0-1.246,1.388l-.024-1.538h-.52a3.812,3.812,0,0,1-1.971.789v.394c.2.032.745.154.789.564v3.994c0,.457-.6.651-1.041.682v.446a30.207,30.207,0,0,1,3.887,0V204.3c-.442-.024-1.041-.315-1.041-.686v-3.123a1.53,1.53,0,0,1,.434-1.025c.233-.225.623.047.863.193a.93.93,0,0,0,1.1-.335.828.828,0,0,0-.095-1.005,1.12,1.12,0,0,0-1.151-.288m-12.877,5.6v-8.417h-.6a3.8,3.8,0,0,1-1.971.788v.394c.2.032.745.154.789.568v6.679c0,.457-.6.651-1.045.682v.446a30.213,30.213,0,0,1,3.887,0v-.446c-.438-.024-1.041-.315-1.041-.686m-1.687-8.279a1.033,1.033,0,0,0,.528-1.183,1.6,1.6,0,0,0-1.1-.816,3.793,3.793,0,0,0-3.943,1.534c-.911,1.057-.737,2.575-.789,3.832H57.52v.568h1.053v4.372c0,.457-.6.65-1.045.682v.446a29.639,29.639,0,0,1,3.848,0v-.446c-.442-.024-1.041-.315-1.041-.686v-4.38h1.348v-.568H60.335s-.055-3.493.284-4.041.6-.509,1.033-.509c.576.047.765.718,1.183,1.053a1.061,1.061,0,0,0,1.005.142m6.564,2.48a3.521,3.521,0,0,0-3.706,3.525,3.71,3.71,0,0,0,7.408,0,3.446,3.446,0,0,0-3.7-3.525m0,6.446c-1.108,0-1.758-1.285-1.758-2.937s.635-3,1.758-2.988,1.747,1.337,1.758,2.988-.6,2.937-1.758,2.937m15.431-.363c-.315,0-.481-.193-.481-.883v-3.473s-.059-1.751-2.555-1.751c-2.161,0-2.76,1.325-2.693,1.818a.623.623,0,0,0,.6.457c.587.032.938-.718,1.258-1.218s.619-.552.879-.54a.99.99,0,0,1,.82.95v1.206s-.331.122-.745.248c-.619.185-1.364.351-1.534.434a2.137,2.137,0,0,0-1.439,2.058,1.729,1.729,0,0,0,1.9,1.577,2.918,2.918,0,0,0,1.888-.836,1.731,1.731,0,0,0,1.463.856,1.8,1.8,0,0,0,1.577-1.277l-.28-.142s-.347.493-.658.5m-2.164-1.285c-.024.248.177,1.222-1.072,1.234-.824,0-.844-.761-.852-1.061-.035-1.388,1.928-1.577,1.928-1.577Zm-56.923-8.654v.446c.442.024,1.041.315,1.041.69v8.551c0,.457-.6.651-1.045.682v.446a32.342,32.342,0,0,1,4.021,0v-.446c-.438-.024-1.041-.315-1.041-.686V195.09c0-.457.6-.651,1.045-.682v-.446a32.1,32.1,0,0,1-4.021,0" transform="translate(-16.013 -117.062)" fill="#d1ad53"/>
    <path id="Path_16" data-name="Path 16" d="M138.452,153.445a.209.209,0,0,0,.2-.154,14.426,14.426,0,0,1,1.672-3.73.2.2,0,0,0-.343-.209,16.231,16.231,0,0,0-1.719,3.844.2.2,0,0,0,.146.244h.047m30.567-.718a.207.207,0,1,0-.394.126,15.719,15.719,0,0,1-1.971,13.724.2.2,0,0,0,.331.229h0a16.121,16.121,0,0,0,2.038-14.079m-25.532-6.974a.2.2,0,0,0,.13-.047,15.7,15.7,0,0,1,16.792-2.192.2.2,0,0,0,.173-.367,16.1,16.1,0,0,0-17.225,2.247.2.2,0,0,0,.13.355" transform="translate(-83.56 -85.778)" fill="#d1ad53"/>
    <path id="Path_17" data-name="Path 17" d="M160.65,148.95a2.843,2.843,0,0,1-1.723.3c-.256-.032-.394-.043-.528-.055l-.225-.032a2.366,2.366,0,0,0,1.072-1.5,5.125,5.125,0,0,0,1.4.457c.513.1,1.013.083,1.222.177a12.1,12.1,0,0,0-1.214.658m-4.495-3.126a7.491,7.491,0,0,1-1.273.114c-.556,0-1.183.087-1.321.087-.264,0-.221-.252.375-.351a3.916,3.916,0,0,0,1.948-.789c.461-.457.319-1.408.5-1.419s-.067.982.706,1.155c-.789.461-.394,1.076-.927,1.206m-4.183,4.1c-1.372.789-1.348,1.419-1.4,1.549s-.607-.237-.607-.489a10.555,10.555,0,0,1,.217-1.183,3.278,3.278,0,0,1,.371-1.21,5.689,5.689,0,0,0,1.1-.5c.319-.241.446-.789.572-.789s-.118.95.371,1.337,1.636.532,1.616.639a5.232,5.232,0,0,0-2.259.662m.962,9.3c-.1.248-.934-.237-2.937-1.486-1.762-1.1-2.507-1.471-2.437-2.551a2.034,2.034,0,0,1,1.553-1.577c.327-.067.438,0,.824.229.485.3.591.438.481.5a1.587,1.587,0,0,0-.789,1.743c.449,1.033,3.414,2.886,3.316,3.154m-4.928-2.1a10.251,10.251,0,0,1-2.484.58c-1.179.185-1.609.331-1.577.118s.84-.142,1.735-.623,1.088-1.092,1.281-1.116.067.067.394.422.686.509.658.619m-14.264-13.011a1.084,1.084,0,0,1-1.076-.252c-.071-.079,0-.162.1-.114a.788.788,0,0,0,.481.091,1.065,1.065,0,0,1,.043-.576.71.71,0,0,1,.248-.319c.091-.059.134.051.079.11a.584.584,0,0,0-.126.3c-.035.284.264.347.43.2a.942.942,0,0,0,.24-.485c.035-.122.134-.071.142.024s.063.852-.564,1.017m-1.439-2.026a1.084,1.084,0,0,1-1.076-.264c-.071-.079,0-.166.1-.114a.851.851,0,0,0,.481.1,1.183,1.183,0,0,1,.028-.587.887.887,0,0,1,.465-.394c.118-.039.154.079.091.1a.517.517,0,0,0-.331.414c-.039.284.26.351.426.205a.946.946,0,0,0,.248-.485c.035-.118.134-.067.142.028s.051.852-.58,1.013m32.767,5.595h0a13.662,13.662,0,0,0-1.214-.639,6.75,6.75,0,0,0-2.437-.757c-.789-.181-.584-.335-1.8-.674a5.359,5.359,0,0,0-1.577-.292c.292-.93.883-.414,1.183-.481s.422-.213.394-.619a1.577,1.577,0,0,1,.256-.812,2.324,2.324,0,0,0,.248-.095c.039-.024.039-.079,0-.142a1.778,1.778,0,0,1-.233-.572c-.059-.347.1-.615.032-.737-1.049-.327-3.087.643-2.886.371,1.616-1.1,3.69-1.033,3.276-1.281-.568-.335-.442-.556-1.183-1.092a2.074,2.074,0,0,0-1.447-.292c.106-.181.371-.666.276-.907s-1.892.118-3.083.158a5.307,5.307,0,0,1-1.916-.237,1.3,1.3,0,0,0,1,.662,4.289,4.289,0,0,0,1.538.02c.028,0,.122.17.122.17a2.847,2.847,0,0,1-.95.11,4.073,4.073,0,0,1-1.266-.217,2.019,2.019,0,0,0,1.183.623,2.969,2.969,0,0,0,1.281-.071l.126.17a2.535,2.535,0,0,1-2.038-.1,1.057,1.057,0,0,0,.808.516,2.3,2.3,0,0,0,1.029,0,2.137,2.137,0,0,0-.311.867,4.52,4.52,0,0,0-.13.729c-.185.789-1.041,1.439-.911,1.51a8.138,8.138,0,0,0,1.549-.654,2.886,2.886,0,0,1-.481,1.577c-.485.615-1.076.493-1.912.714a2.336,2.336,0,0,1-.875.185,4.1,4.1,0,0,0-1.482.067c-.69.185-1.494.69-1.944.789a22.09,22.09,0,0,0-2.212.394l-.394.134a3.084,3.084,0,0,1-.832.221,1.853,1.853,0,0,1-.548-.043,3.573,3.573,0,0,0-1.151-.142,6.608,6.608,0,0,0-1.6.3,12.517,12.517,0,0,1-2.188.516,2.886,2.886,0,0,1-1.337-.351,2.488,2.488,0,0,0-1.3.071,4.65,4.65,0,0,1-.6-.516c-.264-.308-.276-.871-.647-1.285a1.77,1.77,0,0,1-.414-1.309,2.366,2.366,0,0,0,0-.887c-.083-.414-.347-.611-.394-.583a1.017,1.017,0,0,0-.051.714,3.548,3.548,0,0,1,.055,1.183c0,.229.146.619.11.619a.9.9,0,0,1-.394-.639,3.773,3.773,0,0,0-.241-1.352,2.574,2.574,0,0,1-.292-1.049c-.126-.753-.308-1.321-.394-1.27s-.087.134-.11.323a5.337,5.337,0,0,0,.035,1.183h0c-.142-.233-.371-.351-.587-.217a1.831,1.831,0,0,0-.162.122,6.26,6.26,0,0,0,.075-.962c0-.43-.15-.446-.394-.54s-.244-.17-.394-.394-.355-.347-.564-.217-.58.513-.875.513-.394.091-.564.481-.288.252-.335.548a1.609,1.609,0,0,0,1.1,1.333,3.548,3.548,0,0,0,.686.158.639.639,0,0,0-.351.54,1.577,1.577,0,0,0,1.139,1.423,3.521,3.521,0,0,0,1.258.1,3.008,3.008,0,0,1,1.356.714,12.513,12.513,0,0,1,.915.915c.091.087.635.473.678.52h0a.394.394,0,0,0-.091.091,8.513,8.513,0,0,1-.915-.631,6.284,6.284,0,0,0-1.7-1.313c-.114-.047-.331.051-.7.091a2.759,2.759,0,0,1-.757-.035c-.134,0-.213.13-.789.327a4.3,4.3,0,0,0-1.151.619c-.146.106-.059.181.039.209a3.121,3.121,0,0,0,1.64,0,2.851,2.851,0,0,1,1.281-.438,1.683,1.683,0,0,1,1.183.552,1.092,1.092,0,0,0,.789.394,3.336,3.336,0,0,1,1.041.619,3.943,3.943,0,0,0,.856.56c.434.237,2.862,1.9,3.008,1.971s.308-.185.244-.252-.221-.173-.26-.233-.067-.276-.1-.335a5.965,5.965,0,0,0-.789-.465,10.1,10.1,0,0,1-.848-.564,28.169,28.169,0,0,1,3.548,0c1.072.035,2.007-.2,2.76-.2.832,0,1.463.252,2.314.252,1.545,0,1.885-.028,1.885-.028a14.844,14.844,0,0,0-.446,2.985c0,1.029-.493,1.084-1.577,1.77a2.819,2.819,0,0,0-1.049,1.128,10.164,10.164,0,0,0-3.651.9,13.5,13.5,0,0,1-1.995.895.252.252,0,0,1-.181.024,13.424,13.424,0,0,0-2.91-.891,6.533,6.533,0,0,0-1.971.055c-1.163,0-2.295.039-2.295.039l.741-.556c.217-.13.568-.367.6-.587.047-.319-1.691-.856-2.76-1.423a5.315,5.315,0,0,1-1.53-1.183,1.3,1.3,0,0,0,.528,1.076,4.223,4.223,0,0,0,1.3.789h0v.193a2.811,2.811,0,0,1-.852-.394,4.089,4.089,0,0,1-.982-.828,2.018,2.018,0,0,0,.71,1.139,2.973,2.973,0,0,0,1.139.587v.209a2.535,2.535,0,0,1-1.7-1.112,1.053,1.053,0,0,0,.438.856,3.434,3.434,0,0,0,1.289.761v.351a1.1,1.1,0,0,1-.67-.308,1.218,1.218,0,0,0-.674-.532c-.54-.067-.852.359-1.266.7s-.749.173-1.38.394a1.383,1.383,0,0,0-.895,1.116c.063.154-.043.193.891-.039a3.473,3.473,0,0,1,1.892-.134,9.418,9.418,0,0,0,2.113-.146c.994-.028,1.061.17,2.862.564s4.731,1.1,4.786,1.128a3.178,3.178,0,0,0,1.668.252c1.064-.091,1.636.028,2.949-.15a11.113,11.113,0,0,0,3.442-.788s.974.658,2.291,1.4c2.105,1.183,3.607,1.853,3.607,1.853A13.894,13.894,0,0,0,155.513,164a6.166,6.166,0,0,0,.923,1.033c.493.572.942,1.092,1.384,1.636h-.288a5.3,5.3,0,0,1-1.916-.237,1.3,1.3,0,0,0,1.057.651,4.289,4.289,0,0,0,1.538.02c.028,0,.122.17.122.17a2.859,2.859,0,0,1-.95.11,4.084,4.084,0,0,1-1.266-.217,2.019,2.019,0,0,0,1.183.623,2.965,2.965,0,0,0,1.281-.071l.1.13v.039a2.535,2.535,0,0,1-2.026-.1s.142.367.808.516a2.563,2.563,0,0,0,1.344.024,1.112,1.112,0,0,1-.17.552c-.114.26-.323.7-.225.923.221.5.978.394,1.482.584s.536.552,1.053.978a1.384,1.384,0,0,0,1.419.189c.1-.134.189-.063-.493-.741a3.477,3.477,0,0,1-1.092-1.553,6.355,6.355,0,0,0-.966-1.486,1.064,1.064,0,0,0,.205-.244s.438-.678.319-.974c-.067-.166-.556-.126-1.183-.051,0,0-.654-2.145-1.139-3.576a29.654,29.654,0,0,0-1.234-2.973,2.458,2.458,0,0,1-.087-.3,1.51,1.51,0,0,0-.319-.591c-.2-.217-.789-.67-.84-.721s-.422-.56-1.258-1.455-2.338-2.172-2.338-2.172c.055-.363.17-.43.5-.789a5.722,5.722,0,0,1,1.08-.95,13.238,13.238,0,0,0,2.547-2.279h0a.355.355,0,0,1-.217-.154l-.024-.043v-.051a.919.919,0,0,1,.765-.808l.264-.067.106-.024c-.173-.106-.213-.225-.181-.217a4,4,0,0,0,.576.1h.047c.252,0,.524.063.28.134-.418.126-.438.11-1.037.268a.721.721,0,0,0-.615.619,2.442,2.442,0,0,0,1.226.126,17.221,17.221,0,0,0,2.066-.528c.95-.142,2.523.264,3.789-.237a4.666,4.666,0,0,0,1.3-.863,3.154,3.154,0,0,0,.761-.544.516.516,0,0,0-.118-.694" transform="translate(-77.241 -83.968)" fill="#d1ad53"/>
    <path id="Path_18" data-name="Path 18" d="M131.195,151.659a.887.887,0,0,0,.528-.11,1.183,1.183,0,0,1-.2-.6.788.788,0,0,1,.114-.426c.067-.1.158,0,.126.079a.634.634,0,0,0,0,.363.268.268,0,0,0,.516,0,1.037,1.037,0,0,0,.035-.591c0-.138.106-.126.154-.035s.422.832-.138,1.266a1.183,1.183,0,0,1-1.183.205c-.106-.047-.087-.158.055-.158m-.576.449c.035.158.256.331.615.449.114.039.035.284.343.315a6.287,6.287,0,0,0,2.874-.445c.15-.11.047-.363-.268-.6a2.76,2.76,0,0,1-1.037-1.25c-.272-.674-.56-.789-.789-.844a.86.86,0,0,0-.788.26c-.347.28-.643.26-.832.643s.035.6,0,.828-.185.394-.126.647" transform="translate(-78.928 -90.687)" fill="#d1ad53"/>
    <path id="Path_19" data-name="Path 19" d="M193,215.294a15.608,15.608,0,0,1-4.317,2.058h0a.208.208,0,1,0,.134.394h0a16.031,16.031,0,0,0,4.408-2.105.2.2,0,0,0-.229-.335" transform="translate(-114.023 -130.398)" fill="#d1ad53"/>
  </g>
</svg>
